<svg xmlns="http://www.w3.org/2000/svg" version="1.1" xmlns:xlink="http://www.w3.org/1999/xlink" xmlns:svgjs="http://svgjs.dev/svgjs" width="1500" height="1500" viewBox="0 0 1500 1500"><rect width="1500" height="1500" fill="#ffffff"></rect><g transform="matrix(0.6666666666666666,0,0,0.6666666666666666,249.41042497355636,651.9142475350963)"><svg viewBox="0 0 357 70" data-background-color="#ffffff" preserveAspectRatio="xMidYMid meet" height="294" width="1500" xmlns="http://www.w3.org/2000/svg" xmlns:xlink="http://www.w3.org/1999/xlink"><g id="tight-bounds" transform="matrix(1,0,0,1,0.2104782844403701,0.030625880322759258)"><svg viewBox="0 0 356.57904343111926 69.93874823935445" height="69.93874823935445" width="356.57904343111926"><g><svg viewBox="0 0 356.57904343111926 69.93874823935445" height="69.93874823935445" width="356.57904343111926"><g><svg viewBox="0 0 356.57904343111926 69.93874823935445" height="69.93874823935445" width="356.57904343111926"><g id="textblocktransform"><svg viewBox="0 0 356.57904343111926 69.93874823935445" height="69.93874823935445" width="356.57904343111926" id="textblock"><g><svg viewBox="0 0 356.57904343111926 53.232200000000006" height="53.232200000000006" width="356.57904343111926"><g><svg><g></g><g></g></svg></g><g><svg><g><svg></svg></g><g></g></svg></g><g id="text-0"><svg viewBox="0 0 356.57904343111926 53.232200000000006" height="53.232200000000006" width="356.57904343111926"><g transform="matrix(1,0,0,1,0,9.8661)"><svg width="120.65000000000002" viewBox="3.4 -32.3 120.64 32.8" height="32.800000000000004" data-palette-color="#7e91c6"><path d="M3.4 0.5L3.7-1.8Q5.65-2.1 6.38-2.98 7.1-3.85 7.1-6L7.1-6 7.15-27Q7.15-28.6 6.78-29.15 6.4-29.7 5.3-29.7L5.3-29.7Q4.8-29.7 4.3-29.65 3.8-29.6 3.6-29.6L3.6-29.6 3.5-29.8 3.85-32Q4.45-31.95 6.1-31.9 7.75-31.85 9.45-31.85L9.45-31.85Q10.8-31.85 12.53-32.02 14.25-32.2 14.8-32.3L14.8-32.3 14.6-30.05Q12.95-29.85 12.33-29.4 11.7-28.95 11.58-28.35 11.45-27.75 11.3-25.4L11.3-25.4Q11-21.15 10.85-15.7 10.7-10.25 10.7-6.1L10.7-6.1Q10.7-4.3 11-3.53 11.3-2.75 12.13-2.5 12.95-2.25 14.95-2.25L14.95-2.25Q18-2.25 19.43-2.75 20.85-3.25 21.58-4.7 22.3-6.15 22.9-9.35L22.9-9.35 25.1-9.6 25.25-9.35Q25.1-8.55 24.63-5.75 24.15-2.95 23.8 0.15L23.8 0.15 23.55 0.45Q22.1 0.35 17.57 0.18 13.05 0 10.1 0L10.1 0Q7.75 0 5.83 0.2 3.9 0.4 3.4 0.5L3.4 0.5ZM27.05 0.4L27.3-1.7Q29.15-1.9 29.8-2.6 30.45-3.3 30.45-5L30.45-5 30.5-20.85Q30.5-22.1 30.2-22.53 29.9-22.95 29-22.95L29-22.95 27.65-22.9 27.55-23.1 27.85-25Q28.45-25 30.2-24.95 31.95-24.9 34-24.9L34-24.9Q42.35-24.9 46.35-25.35L46.35-25.35 46.5-25.1Q46.4-24.55 46.05-22.6 45.7-20.65 45.55-18.4L45.55-18.4 43.15-18.2Q43.15-18.4 43.2-18.88 43.25-19.35 43.25-19.85L43.25-19.85Q43.25-21.15 42.87-21.68 42.5-22.2 41.32-22.38 40.15-22.55 37.25-22.55L37.25-22.55Q35.9-22.55 35.4-22.48 34.9-22.4 34.75-22.13 34.6-21.85 34.55-21.1L34.55-21.1 34.25-14 38.35-13.95Q39.25-13.95 41-14.13 42.75-14.3 43.3-14.35L43.3-14.35 43.5-14.1 42.9-11.5Q42.35-11.5 40.72-11.55 39.1-11.6 37.3-11.6L37.3-11.6Q35.9-11.6 34.15-11.35L34.15-11.35Q34-7.55 34-4.5L34-4.5Q34-3.35 34.17-2.9 34.35-2.45 34.97-2.3 35.6-2.15 37.05-2.15L37.05-2.15Q40.3-2.15 41.7-2.45 43.1-2.75 43.67-3.68 44.25-4.6 44.6-6.85L44.6-6.85 46.8-7.05 47-6.8Q46.85-6.25 46.47-4.23 46.1-2.2 45.9 0L45.9 0 45.6 0.25Q44.25 0.2 40 0.1 35.75 0 33.1 0L33.1 0Q31.05 0 29.3 0.18 27.55 0.35 27.05 0.4L27.05 0.4ZM62.85 0.45Q57.35 0.45 54.07-2.83 50.8-6.1 50.8-11.65L50.8-11.65Q50.8-15.75 52.6-18.85 54.4-21.95 57.67-23.65 60.95-25.35 65.25-25.35L65.25-25.35Q66.8-25.35 68.57-25.15 70.34-24.95 71.62-24.7 72.9-24.45 73.25-24.4L73.25-24.4 73.45-24.1Q73.4-23.85 73.17-22.93 72.95-22 72.72-20.53 72.5-19.05 72.4-17.4L72.4-17.4 69.95-17.2Q69.95-17.4 70-17.98 70.05-18.55 70.05-19.3L70.05-19.3Q70.05-21.05 68.7-21.83 67.34-22.6 64.3-22.6L64.3-22.6Q59.85-22.6 57.47-20.13 55.1-17.65 55.1-12.95L55.1-12.95Q55.1-7.9 57.45-4.98 59.8-2.05 63.8-2.05L63.8-2.05Q65.2-2.05 66.34-2.35 67.5-2.65 68.17-2.95 68.84-3.25 69-3.35L69-3.35 69-7.75Q69-9 68.57-9.4 68.15-9.8 66.84-9.8L66.84-9.8 64.2-9.8 64.09-10 64.5-12.2Q64.7-12.2 66.37-12.15 68.05-12.1 69.8-12.1L69.8-12.1Q70.95-12.1 72.07-12.18 73.2-12.25 73.5-12.3L73.5-12.3 73.7-11.2Q72.9-10.6 72.62-9.35 72.34-8.1 72.34-5.05L72.34-5.05Q72.34-2.8 72.59-1.65L72.59-1.65 72.34-1.25Q72-1.1 70.72-0.7 69.45-0.3 67.34 0.08 65.25 0.45 62.85 0.45L62.85 0.45ZM91.24 0.35L91.09 0.1 91.24-1.7Q93.34-1.85 94.07-2.15 94.79-2.45 94.79-3.15L94.79-3.15Q94.79-3.95 94.44-4.85L94.44-4.85 93.24-8.7Q92.24-8.75 89.09-8.75L89.09-8.75Q87.64-8.75 84.79-8.45L84.79-8.45 83.39-4.75Q83.04-3.6 83.04-3.35L83.04-3.35Q83.04-2.55 83.59-2.2 84.14-1.85 85.39-1.85L85.39-1.85 87.54-1.85 87.69-1.65 87.39 0.25Q86.89 0.2 85.12 0.1 83.34 0 81.64 0L81.64 0Q80.04 0 78.77 0.05 77.49 0.1 77.04 0.1L77.04 0.1 77.34-1.95Q78.44-2.1 79.09-2.73 79.74-3.35 80.39-4.85L80.39-4.85 88.24-24.7 91.79-25.35 92.14-25.3Q92.14-25.1 94.42-17.4 96.69-9.7 98.49-4.65L98.49-4.65Q98.99-3.2 99.77-2.63 100.54-2.05 102.24-1.9L102.24-1.9 102.34-1.7 102.09 0.1Q101.59 0.1 100.24 0.05 98.89 0 97.54 0L97.54 0Q95.49 0 93.64 0.15 91.79 0.3 91.24 0.35L91.24 0.35ZM85.59-10.8L88.99-10.8Q90.74-10.8 92.64-11L92.64-11 89.59-20.7 89.24-20.7 85.59-10.8ZM105.59 0.4L105.89-1.7Q107.49-1.95 108.07-2.63 108.64-3.3 108.64-5L108.64-5 108.69-20.85Q108.69-22.1 108.39-22.53 108.09-22.95 107.19-22.95L107.19-22.95 105.84-22.9 105.69-23.1 105.99-25Q106.24-25 107.49-24.95 108.74-24.9 110.84-24.9L110.84-24.9Q111.94-24.9 113.57-25.05 115.19-25.2 115.69-25.25L115.69-25.25 115.49-23.15Q114.14-23 113.59-22.68 113.04-22.35 112.94-21.85 112.84-21.35 112.69-19.8L112.69-19.8Q112.19-13.1 112.19-4.95L112.19-4.95Q112.19-3.7 112.42-3.13 112.64-2.55 113.32-2.35 113.99-2.15 115.44-2.15L115.44-2.15Q117.84-2.15 118.97-2.55 120.09-2.95 120.67-4.13 121.24-5.3 121.69-7.85L121.69-7.85 123.89-8.1 124.04-7.8Q123.94-7.15 123.57-4.83 123.19-2.5 122.89 0.05L122.89 0.05 122.64 0.35Q121.49 0.3 117.77 0.15 114.04 0 111.49 0L111.49 0Q109.49 0 107.77 0.18 106.04 0.35 105.59 0.4L105.59 0.4Z" opacity="1" transform="matrix(1,0,0,1,0,0)" fill="#7e91c6" class="undefined-yy-0"></path></svg></g><g><svg xmlns="http://www.w3.org/2000/svg" xmlns:xlink="http://www.w3.org/1999/xlink" version="1.1" x="133.2178" y="0" viewBox="5.8226148234736215 31.962836903146684 500.3563851765264 448.0741630968534" enable-background="new 0 0 512 512" xml:space="preserve" height="53.232200000000006" width="59.44344343111922" class="icon-cg-0" data-fill-palette-color="accent" id="cg-0"><g fill="#eb7043" data-fill-palette-color="accent"><path fill="#eb7043" d="M232.073 134.124l60.928-60.483c9.555-9.485 9.611-24.92 0.126-34.475-9.485-9.555-24.92-9.611-34.475-0.126l-60.928 60.483c-9.555 9.485-9.611 24.92-0.126 34.475C207.084 143.552 222.519 143.609 232.073 134.124z" data-fill-palette-color="accent"></path><path fill="#eb7043" d="M405.133 151.996c-9.485-9.555-24.92-9.611-34.475-0.126l-60.928 60.483c-9.555 9.485-9.611 24.92-0.126 34.475 9.485 9.555 24.92 9.611 34.475 0.126l60.928-60.483C414.561 176.985 414.618 161.551 405.133 151.996z" data-fill-palette-color="accent"></path><path fill="#eb7043" d="M368.089 137.246l-61.976-62.432-72.963 72.43 16.887 17.011c-0.196 0.303-0.4 0.587-0.636 0.829-46.925 48.094-93.862 96.177-140.884 144.176-1.291 1.318-3.512 1.729-5.309 2.543-2.958 1.342-6.639 1.956-8.778 4.108-28.539 28.696-56.804 57.664-85.312 86.392-3.601 3.629-4.203 7.045-2.04 11.311 7.666 15.123 19.113 26.596 34.413 33.729 2.56 1.194 8.093-0.122 10.141-2.281 28.215-29.755 56.079-59.843 83.943-89.929 1.506-1.627 2.371-3.906 3.317-5.98 1.619-3.551 2.245-7.924 4.718-10.656 14.739-16.278 29.888-32.185 44.899-48.216 29.945-31.98 59.897-63.967 90.592-96.748l16.027 16.145L368.089 137.246z" data-fill-palette-color="accent"></path><path fill="#eb7043" d="M486.006 435.732h-0.225l-4.45-0.01c-1.463-0.051-2.946-0.143-4.409-0.235-8.521-0.532-14.189-6.169-14.803-14.577-0.726-9.872-6.138-15.14-16.132-15.14-61.174-0.061-122.359-0.061-183.533 0-9.647 0.01-15.12 5.401-15.795 14.925-0.573 8.163-5.545 13.616-13.401 14.659-0.552 0.072-1.125 0.123-1.708 0.153-4.634 0.225-9.299 0.061-13.933 0.276-8.266 1.78-14.7 8.839-15.887 17.278-0.133 0.931-0.205 1.872-0.205 2.844v3.959c0 0.46 0.02 0.921 0.051 1.371 0.696 10.506 9.442 18.802 20.122 18.802h264.308c11.14 0 20.173-9.033 20.173-20.173v-3.959C506.179 444.764 497.146 435.732 486.006 435.732z" data-fill-palette-color="accent"></path></g></svg></g><g transform="matrix(1,0,0,1,205.22904343111924,10.2911)"><svg width="151.35" viewBox="2.9 -32.05 151.34 32.65" height="32.650000000000006" data-palette-color="#7e91c6"><path d="M8.6 0Q7.05 0 5.25 0.25 3.45 0.5 2.9 0.6L2.9 0.6 3.2-1.7Q5.5-2.15 6.3-3.03 7.1-3.9 7.1-6L7.1-6 7.15-27Q7.15-28.6 6.78-29.15 6.4-29.7 5.3-29.7L5.3-29.7Q4.8-29.7 4.3-29.65 3.8-29.6 3.6-29.6L3.6-29.6 3.5-29.8 3.85-32Q4.45-31.95 6.1-31.9 7.75-31.85 9.4-31.85L9.4-31.85Q11.1-31.85 12.88-31.93 14.65-32 15.3-32.05L15.3-32.05Q20.05-32.05 22.6-30.08 25.15-28.1 25.15-24.45L25.15-24.45Q25.15-21.95 23.63-19.95 22.1-17.95 19.35-16.75L19.35-16.75Q23-15.95 25.05-13.95 27.1-11.95 27.1-9.15L27.1-9.15Q27.1-6.6 25.48-4.38 23.85-2.15 21.15-0.83 18.45 0.5 15.35 0.5L15.35 0.5Q14 0.5 12.25 0.25L12.25 0.25Q9.4 0 8.6 0L8.6 0ZM10.95-17.55Q11.7-17.5 13.48-17.35 15.25-17.2 16.4-17.15L16.4-17.15Q16.4-17 17.7-17.68 19-18.35 20.05-19.78 21.1-21.2 21.1-23.6L21.1-23.6Q21.1-26.8 18.95-28.35 16.8-29.9 12.3-29.9L12.3-29.9Q11.8-29.9 11.63-29.68 11.45-29.45 11.4-28.75L11.4-28.75Q11.1-23.95 10.95-17.55L10.95-17.55ZM10.85-14.9L10.65-5.55Q10.65-3.65 11.95-2.85 13.25-2.05 16.35-2.05L16.35-2.05Q19.35-2.05 21.08-3.73 22.8-5.4 22.8-8.25L22.8-8.25Q22.8-10.95 21.1-12.68 19.4-14.4 16.05-15L16.05-15 10.85-14.9ZM51.4 0.6Q50.3 0.6 49.15-0.38 48-1.35 47.05-3.05L47.05-3.05 42.85-10.4 39.6-10.4 39.5-5.05Q39.5-3.6 39.7-2.98 39.9-2.35 40.47-2.15 41.05-1.95 42.45-1.9L42.45-1.9 42.55-1.75 42.15 0.15Q41.55 0.1 39.97 0.08 38.4 0.05 36.8 0.05L36.8 0.05Q35.25 0.05 34.1 0.1 32.95 0.15 32.55 0.2L32.55 0.2 32.9-1.85Q34.75-2.1 35.35-2.7 35.95-3.3 35.95-4.95L35.95-4.95 36-20.9Q36-22.1 35.7-22.53 35.4-22.95 34.55-22.95L34.55-22.95 33.15-22.9 33-23.1 33.3-25Q33.8-25 35.2-24.95 36.6-24.9 38-24.9L38-24.9Q39.45-24.9 41.1-24.98 42.75-25.05 43.35-25.05L43.35-25.05Q47.4-25.05 49.7-23.38 52-21.7 52-18.75L52-18.75Q52-16.45 50.45-14.5 48.9-12.55 46.1-11.3L46.1-11.3 50.35-4.9Q51.55-3.1 52.65-2.35 53.75-1.6 55.3-1.6L55.3-1.6 55.5-1.35 55.25 0.2 51.4 0.6ZM43.75-12.6Q44.7-13 45.42-13.38 46.15-13.75 47.05-14.95 47.95-16.15 47.95-18.05L47.95-18.05Q47.95-22.9 40.8-22.9L40.8-22.9Q40.4-22.9 40.25-22.73 40.1-22.55 40.1-22L40.1-22Q39.7-15.9 39.7-13L39.7-13 43.75-12.6ZM59 0.4L59.25-1.7Q61.09-1.9 61.75-2.6 62.4-3.3 62.4-5L62.4-5 62.45-20.85Q62.45-22.1 62.15-22.53 61.84-22.95 60.95-22.95L60.95-22.95 59.59-22.9 59.5-23.1 59.8-25Q60.4-25 62.15-24.95 63.9-24.9 65.95-24.9L65.95-24.9Q74.3-24.9 78.3-25.35L78.3-25.35 78.45-25.1Q78.34-24.55 78-22.6 77.65-20.65 77.5-18.4L77.5-18.4 75.09-18.2Q75.09-18.4 75.15-18.88 75.2-19.35 75.2-19.85L75.2-19.85Q75.2-21.15 74.82-21.68 74.45-22.2 73.27-22.38 72.09-22.55 69.2-22.55L69.2-22.55Q67.84-22.55 67.34-22.48 66.84-22.4 66.7-22.13 66.55-21.85 66.5-21.1L66.5-21.1 66.2-14 70.3-13.95Q71.2-13.95 72.95-14.13 74.7-14.3 75.25-14.35L75.25-14.35 75.45-14.1 74.84-11.5Q74.3-11.5 72.67-11.55 71.05-11.6 69.25-11.6L69.25-11.6Q67.84-11.6 66.09-11.35L66.09-11.35Q65.95-7.55 65.95-4.5L65.95-4.5Q65.95-3.35 66.12-2.9 66.3-2.45 66.92-2.3 67.55-2.15 69-2.15L69-2.15Q72.25-2.15 73.65-2.45 75.05-2.75 75.62-3.68 76.2-4.6 76.55-6.85L76.55-6.85 78.75-7.05 78.95-6.8Q78.8-6.25 78.42-4.23 78.05-2.2 77.84 0L77.84 0 77.55 0.25Q76.2 0.2 71.95 0.1 67.7 0 65.05 0L65.05 0Q63 0 61.25 0.18 59.5 0.35 59 0.4L59 0.4ZM84.39 0.4L84.64-1.7Q86.49-1.9 87.14-2.6 87.79-3.3 87.79-5L87.79-5 87.84-20.85Q87.84-22.1 87.54-22.53 87.24-22.95 86.34-22.95L86.34-22.95 84.99-22.9 84.89-23.1 85.19-25Q85.79-25 87.54-24.95 89.29-24.9 91.34-24.9L91.34-24.9Q99.69-24.9 103.69-25.35L103.69-25.35 103.84-25.1Q103.74-24.55 103.39-22.6 103.04-20.65 102.89-18.4L102.89-18.4 100.49-18.2Q100.49-18.4 100.54-18.88 100.59-19.35 100.59-19.85L100.59-19.85Q100.59-21.15 100.22-21.68 99.84-22.2 98.67-22.38 97.49-22.55 94.59-22.55L94.59-22.55Q93.24-22.55 92.74-22.48 92.24-22.4 92.09-22.13 91.94-21.85 91.89-21.1L91.89-21.1 91.59-14 95.69-13.95Q96.59-13.95 98.34-14.13 100.09-14.3 100.64-14.35L100.64-14.35 100.84-14.1 100.24-11.5Q99.69-11.5 98.07-11.55 96.44-11.6 94.64-11.6L94.64-11.6Q93.24-11.6 91.49-11.35L91.49-11.35Q91.34-7.55 91.34-4.5L91.34-4.5Q91.34-3.35 91.52-2.9 91.69-2.45 92.32-2.3 92.94-2.15 94.39-2.15L94.39-2.15Q97.64-2.15 99.04-2.45 100.44-2.75 101.02-3.68 101.59-4.6 101.94-6.85L101.94-6.85 104.14-7.05 104.34-6.8Q104.19-6.25 103.82-4.23 103.44-2.2 103.24 0L103.24 0 102.94 0.25Q101.59 0.2 97.34 0.1 93.09 0 90.44 0L90.44 0Q88.39 0 86.64 0.18 84.89 0.35 84.39 0.4L84.39 0.4ZM109.54 0.15L108.89-1.25 123.94-22.8 117.34-22.55Q114.54-22.4 113.42-21.3 112.29-20.2 111.99-17.35L111.99-17.35 109.69-17.15Q109.79-17.85 110.07-20.3 110.34-22.75 110.39-25L110.39-25 110.84-25.4 118.04-24.95 128.94-24.7 129.49-23.45Q124.54-17.25 120.32-11.25 116.09-5.25 113.94-1.95L113.94-1.95 121.74-2.3Q123.84-2.4 125.12-3.9 126.39-5.4 126.99-8.6L126.99-8.6 129.34-8.85Q129.19-8.1 128.82-5.5 128.44-2.9 128.29-0.55L128.29-0.55 127.64 0.1 112.49-0.1 109.54 0.15ZM134.29 0.4L134.54-1.7Q136.39-1.9 137.04-2.6 137.69-3.3 137.69-5L137.69-5 137.74-20.85Q137.74-22.1 137.44-22.53 137.14-22.95 136.24-22.95L136.24-22.95 134.89-22.9 134.79-23.1 135.09-25Q135.69-25 137.44-24.95 139.19-24.9 141.24-24.9L141.24-24.9Q149.59-24.9 153.59-25.35L153.59-25.35 153.74-25.1Q153.64-24.55 153.29-22.6 152.94-20.65 152.79-18.4L152.79-18.4 150.39-18.2Q150.39-18.4 150.44-18.88 150.49-19.35 150.49-19.85L150.49-19.85Q150.49-21.15 150.11-21.68 149.74-22.2 148.56-22.38 147.39-22.55 144.49-22.55L144.49-22.55Q143.14-22.55 142.64-22.48 142.14-22.4 141.99-22.13 141.84-21.85 141.79-21.1L141.79-21.1 141.49-14 145.59-13.95Q146.49-13.95 148.24-14.13 149.99-14.3 150.54-14.35L150.54-14.35 150.74-14.1 150.14-11.5Q149.59-11.5 147.96-11.55 146.34-11.6 144.54-11.6L144.54-11.6Q143.14-11.6 141.39-11.35L141.39-11.35Q141.24-7.55 141.24-4.5L141.24-4.5Q141.24-3.35 141.41-2.9 141.59-2.45 142.21-2.3 142.84-2.15 144.29-2.15L144.29-2.15Q147.54-2.15 148.94-2.45 150.34-2.75 150.91-3.68 151.49-4.6 151.84-6.85L151.84-6.85 154.04-7.05 154.24-6.8Q154.09-6.25 153.71-4.23 153.34-2.2 153.14 0L153.14 0 152.84 0.25Q151.49 0.2 147.24 0.1 142.99 0 140.34 0L140.34 0Q138.29 0 136.54 0.18 134.79 0.35 134.29 0.4L134.29 0.4Z" opacity="1" transform="matrix(1,0,0,1,0,0)" fill="#7e91c6" class="undefined-yy-1"></path></svg></g></svg></g></svg></g><g transform="matrix(1,0,0,1,68.10659729534378,60.94008140000001)"><svg viewBox="0 0 220.3658488404317 8.998666839354442" height="8.998666839354442" width="220.3658488404317"><g transform="matrix(1,0,0,1,0,0)"><svg width="220.3658488404317" viewBox="1.55 -35.05 1139.8300000000002 46.55" height="8.998666839354442" data-palette-color="#7e91c6"><path d="M9.35 0L1.75 0 1.75-0.5 3.4-1Q4.3-1.25 4.7-1.98 5.1-2.7 5.1-3.7L5.1-3.7 5.1-27.75Q4.55-28.95 4.23-29.55 3.9-30.15 3.5-30.58 3.1-31 2.4-31.65L2.4-31.65 1.55-32.5 1.55-33 10.4-33 27-10.35 27-29.2Q27-30.2 26.68-31 26.35-31.8 25.35-32.05L25.35-32.05 23.7-32.5 23.7-33 30.85-33 30.85-32.5 29.5-32.05Q28.6-31.75 28.4-31 28.2-30.25 28.2-29.25L28.2-29.25 28.2 0.15 25.4 0.15 6.3-26.1 6.3-3.7Q6.3-2.7 6.6-2 6.9-1.3 7.85-1L7.85-1 9.35-0.5 9.35 0ZM40.95 0.75L40.95 0.75Q38.05 0.75 36.07-0.9 34.1-2.55 34.1-5.65L34.1-5.65Q34.1-8 36.5-9.98 38.9-11.95 44.05-12.95L44.05-12.95Q44.85-13.1 45.85-13.28 46.85-13.45 47.95-13.65L47.95-13.65 47.95-17.6Q47.95-21 47.12-22.38 46.3-23.75 44.55-23.75L44.55-23.75Q43.35-23.75 42.65-22.98 41.95-22.2 41.75-20.3L41.75-20.3 41.65-19.75Q41.55-17.6 40.6-16.6 39.65-15.6 38.25-15.6L38.25-15.6Q36.95-15.6 36.1-16.4 35.25-17.2 35.25-18.55L35.25-18.55Q35.25-20.6 36.67-22 38.1-23.4 40.45-24.1 42.8-24.8 45.55-24.8L45.55-24.8Q50-24.8 52.42-22.63 54.85-20.45 54.85-15.55L54.85-15.55 54.85-4.5Q54.85-2.25 56.95-2.25L56.95-2.25 58.05-2.25 58.5-1.85Q57.55-0.65 56.42 0 55.3 0.65 53.25 0.65L53.25 0.65Q51.05 0.65 49.77-0.38 48.5-1.4 48.1-3.1L48.1-3.1Q46.6-1.5 45.02-0.38 43.45 0.75 40.95 0.75ZM44-2.3L44-2.3Q45-2.3 45.87-2.78 46.75-3.25 47.95-4.25L47.95-4.25 47.95-12.65Q47.45-12.55 46.95-12.45 46.45-12.35 45.8-12.25L45.8-12.25Q43.5-11.65 42.12-10.23 40.75-8.8 40.75-6.4L40.75-6.4Q40.75-4.35 41.7-3.33 42.65-2.3 44-2.3ZM73.65 0.15L70.75 0.15 61.9-21.1Q61.2-22.8 59.5-23.35L59.5-23.35 58.8-23.55 58.8-24.05 71.75-24.05 71.75-23.55 70.84-23.35Q68.9-22.85 69.65-20.75L69.65-20.75 74.9-6.8 79.8-20.65Q80.2-21.65 80-22.3 79.8-22.95 78.8-23.25L78.8-23.25 77.55-23.55 77.55-24.05 84.8-24.05 84.8-23.55 83.34-23.2Q82.4-22.95 81.87-22.45 81.34-21.95 81-20.95L81-20.95 73.65 0.15ZM92.04-27.4L92.04-27.4Q90.34-27.4 89.17-28.48 87.99-29.55 87.99-31.2L87.99-31.2Q87.99-32.9 89.17-33.95 90.34-35 92.04-35L92.04-35Q93.74-35 94.89-33.95 96.04-32.9 96.04-31.2L96.04-31.2Q96.04-29.55 94.89-28.48 93.74-27.4 92.04-27.4ZM97.84 0L86.14 0 86.14-0.5 86.84-0.7Q87.84-1 88.22-1.6 88.59-2.2 88.59-3.2L88.59-3.2 88.59-18.85Q88.59-19.9 88.22-20.43 87.84-20.95 86.84-21.15L86.84-21.15 86.14-21.3 86.14-21.8 95.29-24.75 95.79-24.25 95.64-17.15 95.64-3.15Q95.64-2.15 96.02-1.55 96.39-0.95 97.34-0.65L97.34-0.65 97.84-0.5 97.84 0ZM110.94-8.65L110.94-8.65Q107.49-8.65 105.09-9.8L105.09-9.8 105.09-8.1Q105.09-6.55 106.64-6.25L106.64-6.25 116.04-4.5Q118.39-4.05 120.29-3.33 122.19-2.6 123.34-1.28 124.49 0.05 124.49 2.35L124.49 2.35Q124.49 4.8 122.89 6.88 121.29 8.95 118.17 10.23 115.04 11.5 110.39 11.5L110.39 11.5Q106.39 11.5 104.04 10.68 101.69 9.85 100.72 8.55 99.74 7.25 99.74 5.8L99.74 5.8Q99.74 4 100.97 2.18 102.19 0.35 103.99-0.75L103.99-0.75Q102.44-1.35 101.74-2.3 101.04-3.25 101.04-4.35L101.04-4.35Q101.04-5.35 101.57-6.23 102.09-7.1 102.84-8L102.84-8 104.49-10.1Q100.84-12.2 100.84-16.7L100.84-16.7Q100.84-20.3 103.42-22.55 105.99-24.8 110.99-24.8L110.99-24.8Q113.54-24.8 115.47-24.2 117.39-23.6 118.64-22.5L118.64-22.5Q120.24-22.75 121.67-23.33 123.09-23.9 124.24-24.9L124.24-24.9 124.94-24.4 124.94-21.85 119.29-21.85Q121.09-19.85 121.09-16.7L121.09-16.7Q121.09-13.2 118.52-10.93 115.94-8.65 110.94-8.65ZM110.89-9.65L110.89-9.65Q112.89-9.65 113.82-11.3 114.74-12.95 114.74-16.8L114.74-16.8Q114.74-20.65 113.82-22.23 112.89-23.8 110.99-23.8L110.99-23.8Q109.14-23.8 108.19-22.18 107.24-20.55 107.24-16.7L107.24-16.7Q107.24-12.85 108.12-11.25 108.99-9.65 110.89-9.65ZM103.44 4.2L103.44 4.2Q103.44 7.15 105.27 8.65 107.09 10.15 111.04 10.15L111.04 10.15Q115.19 10.15 117.29 8.8 119.39 7.45 119.39 5L119.39 5Q119.39 3.6 118.37 2.75 117.34 1.9 114.89 1.45L114.89 1.45 105.84-0.25Q105.44-0.35 105.04-0.45L105.04-0.45Q104.34 0.55 103.89 1.83 103.44 3.1 103.44 4.2ZM133.89 0.75L133.89 0.75Q130.99 0.75 129.01-0.9 127.04-2.55 127.04-5.65L127.04-5.65Q127.04-8 129.44-9.98 131.84-11.95 136.99-12.95L136.99-12.95Q137.79-13.1 138.79-13.28 139.79-13.45 140.89-13.65L140.89-13.65 140.89-17.6Q140.89-21 140.06-22.38 139.24-23.75 137.49-23.75L137.49-23.75Q136.29-23.75 135.59-22.98 134.89-22.2 134.69-20.3L134.69-20.3 134.59-19.75Q134.49-17.6 133.54-16.6 132.59-15.6 131.19-15.6L131.19-15.6Q129.89-15.6 129.04-16.4 128.19-17.2 128.19-18.55L128.19-18.55Q128.19-20.6 129.61-22 131.04-23.4 133.39-24.1 135.74-24.8 138.49-24.8L138.49-24.8Q142.94-24.8 145.36-22.63 147.79-20.45 147.79-15.55L147.79-15.55 147.79-4.5Q147.79-2.25 149.89-2.25L149.89-2.25 150.99-2.25 151.44-1.85Q150.49-0.65 149.36 0 148.24 0.65 146.19 0.65L146.19 0.65Q143.99 0.65 142.71-0.38 141.44-1.4 141.04-3.1L141.04-3.1Q139.54-1.5 137.96-0.38 136.39 0.75 133.89 0.75ZM136.94-2.3L136.94-2.3Q137.94-2.3 138.81-2.78 139.69-3.25 140.89-4.25L140.89-4.25 140.89-12.65Q140.39-12.55 139.89-12.45 139.39-12.35 138.74-12.25L138.74-12.25Q136.44-11.65 135.06-10.23 133.69-8.8 133.69-6.4L133.69-6.4Q133.69-4.35 134.64-3.33 135.59-2.3 136.94-2.3ZM161.99 0.75L161.99 0.75Q158.79 0.75 157.01-0.85 155.24-2.45 155.24-5.95L155.24-5.95 155.24-23.05 151.79-23.05 151.79-23.55 152.99-23.75Q154.54-24.1 155.66-24.75 156.79-25.4 157.89-26.5L157.89-26.5 161.99-31.05 162.49-31.05 162.34-24.05 167.94-24.05 167.94-23.05 162.29-23.05 162.29-5.05Q162.29-3.3 163.06-2.4 163.84-1.5 165.04-1.5L165.04-1.5Q166.09-1.5 166.89-2.02 167.69-2.55 168.49-3.45L168.49-3.45 168.99-2.95Q167.99-1.25 166.24-0.25 164.49 0.75 161.99 0.75ZM176.53-27.4L176.53-27.4Q174.83-27.4 173.66-28.48 172.48-29.55 172.48-31.2L172.48-31.2Q172.48-32.9 173.66-33.95 174.83-35 176.53-35L176.53-35Q178.23-35 179.38-33.95 180.53-32.9 180.53-31.2L180.53-31.2Q180.53-29.55 179.38-28.48 178.23-27.4 176.53-27.4ZM182.33 0L170.63 0 170.63-0.5 171.33-0.7Q172.33-1 172.71-1.6 173.08-2.2 173.08-3.2L173.08-3.2 173.08-18.85Q173.08-19.9 172.71-20.43 172.33-20.95 171.33-21.15L171.33-21.15 170.63-21.3 170.63-21.8 179.78-24.75 180.28-24.25 180.13-17.15 180.13-3.15Q180.13-2.15 180.51-1.55 180.88-0.95 181.83-0.65L181.83-0.65 182.33-0.5 182.33 0ZM196.28 0L184.53 0 184.53-0.5 185.23-0.7Q186.98-1.2 186.98-3.15L186.98-3.15 186.98-18.8Q186.98-19.9 186.63-20.43 186.28-20.95 185.28-21.15L185.28-21.15 184.53-21.35 184.53-21.85 193.08-24.75 193.58-24.25 193.98-21.25Q195.73-22.8 197.93-23.8 200.13-24.8 202.28-24.8L202.28-24.8Q205.58-24.8 207.36-23 209.13-21.2 209.13-17.5L209.13-17.5 209.13-3.1Q209.13-1.15 211.03-0.65L211.03-0.65 211.48-0.5 211.48 0 199.68 0 199.68-0.5 200.33-0.7Q202.08-1.25 202.08-3.15L202.08-3.15 202.08-19.1Q202.08-22.3 198.88-22.3L198.88-22.3Q196.68-22.3 194.08-20.1L194.08-20.1 194.08-3.1Q194.08-1.15 195.83-0.65L195.83-0.65 196.28-0.5 196.28 0ZM224.33-8.65L224.33-8.65Q220.88-8.65 218.48-9.8L218.48-9.8 218.48-8.1Q218.48-6.55 220.03-6.25L220.03-6.25 229.43-4.5Q231.78-4.05 233.68-3.33 235.58-2.6 236.73-1.28 237.88 0.05 237.88 2.35L237.88 2.35Q237.88 4.8 236.28 6.88 234.68 8.95 231.55 10.23 228.43 11.5 223.78 11.5L223.78 11.5Q219.78 11.5 217.43 10.68 215.08 9.85 214.1 8.55 213.13 7.25 213.13 5.8L213.13 5.8Q213.13 4 214.35 2.18 215.58 0.35 217.38-0.75L217.38-0.75Q215.83-1.35 215.13-2.3 214.43-3.25 214.43-4.35L214.43-4.35Q214.43-5.35 214.95-6.23 215.48-7.1 216.23-8L216.23-8 217.88-10.1Q214.23-12.2 214.23-16.7L214.23-16.7Q214.23-20.3 216.8-22.55 219.38-24.8 224.38-24.8L224.38-24.8Q226.93-24.8 228.85-24.2 230.78-23.6 232.03-22.5L232.03-22.5Q233.63-22.75 235.05-23.33 236.48-23.9 237.63-24.9L237.63-24.9 238.33-24.4 238.33-21.85 232.68-21.85Q234.48-19.85 234.48-16.7L234.48-16.7Q234.48-13.2 231.9-10.93 229.33-8.65 224.33-8.65ZM224.28-9.65L224.28-9.65Q226.28-9.65 227.2-11.3 228.13-12.95 228.13-16.8L228.13-16.8Q228.13-20.65 227.2-22.23 226.28-23.8 224.38-23.8L224.38-23.8Q222.53-23.8 221.58-22.18 220.63-20.55 220.63-16.7L220.63-16.7Q220.63-12.85 221.5-11.25 222.38-9.65 224.28-9.65ZM216.83 4.2L216.83 4.2Q216.83 7.15 218.65 8.65 220.48 10.15 224.43 10.15L224.43 10.15Q228.58 10.15 230.68 8.8 232.78 7.45 232.78 5L232.78 5Q232.78 3.6 231.75 2.75 230.73 1.9 228.28 1.45L228.28 1.45 219.23-0.25Q218.83-0.35 218.43-0.45L218.43-0.45Q217.73 0.55 217.28 1.83 216.83 3.1 216.83 4.2ZM275.27 0L250.97 0 250.97-0.5 252.02-0.9Q253.07-1.3 253.35-1.88 253.62-2.45 253.62-3.45L253.62-3.45 253.62-29.55Q253.62-30.55 253.32-31.15 253.02-31.75 252.02-32.1L252.02-32.1 250.97-32.5 250.97-33 263.72-33 263.72-32.5 262.82-32.1Q261.87-31.75 261.52-31.13 261.17-30.5 261.17-29.5L261.17-29.5 261.17-1 268.87-1Q270.72-1 271.6-1.9 272.47-2.8 273.27-4.5L273.27-4.5 275.22-8.7 275.72-8.7 275.27 0ZM290.42-24.8L290.42-24.8Q293.67-24.8 295.97-23.48 298.27-22.15 299.5-19.88 300.72-17.6 300.72-14.7L300.72-14.7Q300.72-14.15 300.67-13.58 300.62-13 300.47-12.55L300.47-12.55 285.57-12.55Q285.62-7.15 287.5-4.78 289.37-2.4 293.07-2.4L293.07-2.4Q295.57-2.4 297.12-3.2 298.67-4 300.02-5.55L300.02-5.55 300.52-5.1Q298.97-2.35 296.4-0.8 293.82 0.75 290.22 0.75L290.22 0.75Q286.67 0.75 283.92-0.78 281.17-2.3 279.62-5.15 278.07-8 278.07-11.95L278.07-11.95Q278.07-16.05 279.87-18.93 281.67-21.8 284.5-23.3 287.32-24.8 290.42-24.8ZM290.27-23.8L290.27-23.8Q288.82-23.8 287.8-22.93 286.77-22.05 286.2-19.83 285.62-17.6 285.57-13.55L285.57-13.55 294.12-13.55Q294.62-19 293.72-21.4 292.82-23.8 290.27-23.8ZM314.12-8.65L314.12-8.65Q310.67-8.65 308.27-9.8L308.27-9.8 308.27-8.1Q308.27-6.55 309.82-6.25L309.82-6.25 319.22-4.5Q321.57-4.05 323.47-3.33 325.37-2.6 326.52-1.28 327.67 0.05 327.67 2.35L327.67 2.35Q327.67 4.8 326.07 6.88 324.47 8.95 321.34 10.23 318.22 11.5 313.57 11.5L313.57 11.5Q309.57 11.5 307.22 10.68 304.87 9.85 303.89 8.55 302.92 7.25 302.92 5.8L302.92 5.8Q302.92 4 304.14 2.18 305.37 0.35 307.17-0.75L307.17-0.75Q305.62-1.35 304.92-2.3 304.22-3.25 304.22-4.35L304.22-4.35Q304.22-5.35 304.74-6.23 305.27-7.1 306.02-8L306.02-8 307.67-10.1Q304.02-12.2 304.02-16.7L304.02-16.7Q304.02-20.3 306.59-22.55 309.17-24.8 314.17-24.8L314.17-24.8Q316.72-24.8 318.64-24.2 320.57-23.6 321.82-22.5L321.82-22.5Q323.42-22.75 324.84-23.33 326.27-23.9 327.42-24.9L327.42-24.9 328.12-24.4 328.12-21.85 322.47-21.85Q324.27-19.85 324.27-16.7L324.27-16.7Q324.27-13.2 321.69-10.93 319.12-8.65 314.12-8.65ZM314.07-9.65L314.07-9.65Q316.07-9.65 316.99-11.3 317.92-12.95 317.92-16.8L317.92-16.8Q317.92-20.65 316.99-22.23 316.07-23.8 314.17-23.8L314.17-23.8Q312.32-23.8 311.37-22.18 310.42-20.55 310.42-16.7L310.42-16.7Q310.42-12.85 311.29-11.25 312.17-9.65 314.07-9.65ZM306.62 4.2L306.62 4.2Q306.62 7.15 308.44 8.65 310.27 10.15 314.22 10.15L314.22 10.15Q318.37 10.15 320.47 8.8 322.57 7.45 322.57 5L322.57 5Q322.57 3.6 321.54 2.75 320.52 1.9 318.07 1.45L318.07 1.45 309.02-0.25Q308.62-0.35 308.22-0.45L308.22-0.45Q307.52 0.55 307.07 1.83 306.62 3.1 306.62 4.2ZM337.07 0.75L337.07 0.75Q334.17 0.75 332.19-0.9 330.22-2.55 330.22-5.65L330.22-5.65Q330.22-8 332.62-9.98 335.02-11.95 340.17-12.95L340.17-12.95Q340.97-13.1 341.97-13.28 342.97-13.45 344.07-13.65L344.07-13.65 344.07-17.6Q344.07-21 343.24-22.38 342.42-23.75 340.67-23.75L340.67-23.75Q339.47-23.75 338.77-22.98 338.07-22.2 337.87-20.3L337.87-20.3 337.77-19.75Q337.67-17.6 336.72-16.6 335.77-15.6 334.37-15.6L334.37-15.6Q333.07-15.6 332.22-16.4 331.37-17.2 331.37-18.55L331.37-18.55Q331.37-20.6 332.79-22 334.22-23.4 336.57-24.1 338.92-24.8 341.67-24.8L341.67-24.8Q346.12-24.8 348.54-22.63 350.97-20.45 350.97-15.55L350.97-15.55 350.97-4.5Q350.97-2.25 353.07-2.25L353.07-2.25 354.17-2.25 354.62-1.85Q353.67-0.65 352.54 0 351.42 0.65 349.37 0.65L349.37 0.65Q347.17 0.65 345.89-0.38 344.62-1.4 344.22-3.1L344.22-3.1Q342.72-1.5 341.14-0.38 339.57 0.75 337.07 0.75ZM340.12-2.3L340.12-2.3Q341.12-2.3 341.99-2.78 342.87-3.25 344.07-4.25L344.07-4.25 344.07-12.65Q343.57-12.55 343.07-12.45 342.57-12.35 341.92-12.25L341.92-12.25Q339.62-11.65 338.24-10.23 336.87-8.8 336.87-6.4L336.87-6.4Q336.87-4.35 337.82-3.33 338.77-2.3 340.12-2.3ZM367.76 0L355.81 0 355.81-0.5 356.41-0.7Q358.21-1.3 358.21-3.2L358.21-3.2 358.21-29.95Q358.21-30.95 357.81-31.48 357.41-32 356.41-32.25L356.41-32.25 355.76-32.4 355.76-32.9 364.91-35.05 365.51-34.6 365.31-27.6 365.31-10.5Q365.31-8.65 365.34-6.83 365.36-5 365.36-3.2L365.36-3.2Q365.36-2.2 365.76-1.58 366.16-0.95 367.11-0.65L367.11-0.65 367.76-0.5 367.76 0ZM395.11 0.15L391.66 0.15 382.81-29.6Q382.46-30.75 382.06-31.28 381.66-31.8 380.66-32.25L380.66-32.25 380.06-32.5 380.06-33 393.31-33 393.31-32.5 392.26-32.1Q391.11-31.65 390.71-31 390.31-30.35 390.66-29.2L390.66-29.2 396.11-8.4 402.01-25.85 400.86-29.4Q400.51-30.45 400.21-31 399.91-31.55 399.21-31.9L399.21-31.9 398.11-32.5 398.11-33 410.66-33 410.66-32.5 409.11-31.9Q408.11-31.55 407.98-30.88 407.86-30.2 408.21-29.15L408.21-29.15 414.56-7.9 420.56-28.75Q420.91-29.95 420.81-30.85 420.71-31.75 419.56-32.15L419.56-32.15 418.51-32.5 418.51-33 425.46-33 425.46-32.5 424.16-32Q423.16-31.65 422.76-30.9 422.36-30.15 422.06-29.05L422.06-29.05 413.76 0.15 410.31 0.15 402.81-23.35 395.11 0.15ZM434.21 0.75L434.21 0.75Q431.31 0.75 429.33-0.9 427.36-2.55 427.36-5.65L427.36-5.65Q427.36-8 429.76-9.98 432.16-11.95 437.31-12.95L437.31-12.95Q438.11-13.1 439.11-13.28 440.11-13.45 441.21-13.65L441.21-13.65 441.21-17.6Q441.21-21 440.38-22.38 439.56-23.75 437.81-23.75L437.81-23.75Q436.61-23.75 435.91-22.98 435.21-22.2 435.01-20.3L435.01-20.3 434.91-19.75Q434.81-17.6 433.86-16.6 432.91-15.6 431.51-15.6L431.51-15.6Q430.21-15.6 429.36-16.4 428.51-17.2 428.51-18.55L428.51-18.55Q428.51-20.6 429.93-22 431.36-23.4 433.71-24.1 436.06-24.8 438.81-24.8L438.81-24.8Q443.26-24.8 445.68-22.63 448.11-20.45 448.11-15.55L448.11-15.55 448.11-4.5Q448.11-2.25 450.21-2.25L450.21-2.25 451.31-2.25 451.76-1.85Q450.81-0.65 449.68 0 448.56 0.65 446.51 0.65L446.51 0.65Q444.31 0.65 443.03-0.38 441.76-1.4 441.36-3.1L441.36-3.1Q439.86-1.5 438.28-0.38 436.71 0.75 434.21 0.75ZM437.26-2.3L437.26-2.3Q438.26-2.3 439.13-2.78 440.01-3.25 441.21-4.25L441.21-4.25 441.21-12.65Q440.71-12.55 440.21-12.45 439.71-12.35 439.06-12.25L439.06-12.25Q436.76-11.65 435.38-10.23 434.01-8.8 434.01-6.4L434.01-6.4Q434.01-4.35 434.96-3.33 435.91-2.3 437.26-2.3ZM462.3 0.75L462.3 0.75Q459.1 0.75 457.33-0.85 455.55-2.45 455.55-5.95L455.55-5.95 455.55-23.05 452.1-23.05 452.1-23.55 453.3-23.75Q454.85-24.1 455.98-24.75 457.1-25.4 458.2-26.5L458.2-26.5 462.3-31.05 462.8-31.05 462.65-24.05 468.25-24.05 468.25-23.05 462.6-23.05 462.6-5.05Q462.6-3.3 463.38-2.4 464.15-1.5 465.35-1.5L465.35-1.5Q466.4-1.5 467.2-2.02 468-2.55 468.8-3.45L468.8-3.45 469.3-2.95Q468.3-1.25 466.55-0.25 464.8 0.75 462.3 0.75ZM483.4-24.8L483.4-24.8Q486.65-24.8 488.95-23.48 491.25-22.15 492.48-19.88 493.7-17.6 493.7-14.7L493.7-14.7Q493.7-14.15 493.65-13.58 493.6-13 493.45-12.55L493.45-12.55 478.55-12.55Q478.6-7.15 480.48-4.78 482.35-2.4 486.05-2.4L486.05-2.4Q488.55-2.4 490.1-3.2 491.65-4 493-5.55L493-5.55 493.5-5.1Q491.95-2.35 489.38-0.8 486.8 0.75 483.2 0.75L483.2 0.75Q479.65 0.75 476.9-0.78 474.15-2.3 472.6-5.15 471.05-8 471.05-11.95L471.05-11.95Q471.05-16.05 472.85-18.93 474.65-21.8 477.48-23.3 480.3-24.8 483.4-24.8ZM483.25-23.8L483.25-23.8Q481.8-23.8 480.78-22.93 479.75-22.05 479.18-19.83 478.6-17.6 478.55-13.55L478.55-13.55 487.1-13.55Q487.6-19 486.7-21.4 485.8-23.8 483.25-23.8ZM509.15 0L496.2 0 496.2-0.5 496.95-0.7Q497.95-1 498.32-1.6 498.7-2.2 498.7-3.15L498.7-3.15 498.7-18.8Q498.7-19.9 498.32-20.43 497.95-20.95 496.95-21.15L496.95-21.15 496.2-21.35 496.2-21.85 504.8-24.75 505.3-24.25 505.75-19.95 505.75-19.55Q506.45-20.95 507.57-22.13 508.7-23.3 510.07-24.05 511.45-24.8 512.8-24.8L512.8-24.8Q514.7-24.8 515.7-23.75 516.7-22.7 516.7-21.1L516.7-21.1Q516.7-19.4 515.72-18.48 514.75-17.55 513.4-17.55L513.4-17.55Q511.3-17.55 509.7-19.65L509.7-19.65 509.6-19.75Q509.1-20.45 508.45-20.53 507.8-20.6 507.25-19.9L507.25-19.9Q506.75-19.45 506.42-18.82 506.1-18.2 505.8-17.4L505.8-17.4 505.8-3.45Q505.8-1.45 507.55-0.95L507.55-0.95 509.15-0.5 509.15 0ZM526.89 0.75L526.89 0.75Q524.45 0.75 522.5 0.18 520.54-0.4 518.89-1.25L518.89-1.25 518.95-7.2 519.45-7.2 521.14-4.2Q522.25-2.2 523.57-1.23 524.89-0.25 526.95-0.25L526.95-0.25Q529.35-0.25 530.82-1.33 532.29-2.4 532.29-4.2L532.29-4.2Q532.29-5.85 531.25-6.9 530.2-7.95 527.35-8.8L527.35-8.8 525.25-9.45Q522.2-10.35 520.45-12.25 518.7-14.15 518.7-16.9L518.7-16.9Q518.7-20.2 521.29-22.5 523.89-24.8 528.75-24.8L528.75-24.8Q530.7-24.8 532.42-24.38 534.14-23.95 535.75-23.1L535.75-23.1 535.45-17.7 534.95-17.7 533.2-20.8Q532.25-22.45 531.32-23.13 530.39-23.8 528.54-23.8L528.54-23.8Q526.85-23.8 525.35-22.85 523.85-21.9 523.85-20.15L523.85-20.15Q523.85-18.45 525.12-17.45 526.39-16.45 528.89-15.6L528.89-15.6 531.14-14.95Q534.75-13.85 536.29-11.93 537.85-10 537.85-7.3L537.85-7.3Q537.85-3.65 534.97-1.45 532.1 0.75 526.89 0.75ZM543.39 7.95L543.39 7.95 543.09 7.25Q544.79 6.2 545.67 4.73 546.54 3.25 546.89 1.05L546.89 1.05 545.24 0.35Q543.79-0.35 543.02-1.48 542.24-2.6 542.24-3.75L542.24-3.75Q542.24-5.5 543.39-6.68 544.54-7.85 546.39-7.85L546.39-7.85Q548.29-7.85 549.47-6.53 550.64-5.2 550.64-2.7L550.64-2.7Q550.64 0.05 549.52 2.23 548.39 4.4 546.74 5.88 545.09 7.35 543.39 7.95ZM576.79 0.9L576.79 0.9Q574.04 0.9 571.19 0.23 568.34-0.45 566.44-1.55L566.44-1.55 566.69-8.35 567.19-8.35 568.74-5.1Q569.44-3.7 570.24-2.63 571.04-1.55 572.44-0.95L572.44-0.95Q573.44-0.45 574.36-0.28 575.29-0.1 576.44-0.1L576.44-0.1Q579.49-0.1 581.26-1.75 583.04-3.4 583.04-6L583.04-6Q583.04-8.45 581.84-9.83 580.64-11.2 577.99-12.5L577.99-12.5 575.94-13.4Q571.64-15.3 569.21-17.78 566.79-20.25 566.79-24.35L566.79-24.35Q566.79-27.3 568.31-29.45 569.84-31.6 572.56-32.75 575.29-33.9 578.94-33.9L578.94-33.9Q581.59-33.9 583.96-33.2 586.34-32.5 588.09-31.3L588.09-31.3 587.79-25.3 587.29-25.3 585.24-29.05Q584.39-30.8 583.54-31.53 582.69-32.25 581.59-32.55L581.59-32.55Q580.94-32.75 580.39-32.83 579.84-32.9 578.99-32.9L578.99-32.9Q576.44-32.9 574.69-31.43 572.94-29.95 572.94-27.45L572.94-27.45Q572.94-24.9 574.29-23.38 575.64-21.85 578.24-20.65L578.24-20.65 580.54-19.65Q585.34-17.55 587.44-15.18 589.54-12.8 589.54-9.05L589.54-9.05Q589.54-4.65 586.21-1.88 582.89 0.9 576.79 0.9ZM604.53-24.8L604.53-24.8Q607.78-24.8 610.08-23.48 612.38-22.15 613.61-19.88 614.83-17.6 614.83-14.7L614.83-14.7Q614.83-14.15 614.78-13.58 614.73-13 614.58-12.55L614.58-12.55 599.68-12.55Q599.73-7.15 601.61-4.78 603.48-2.4 607.18-2.4L607.18-2.4Q609.68-2.4 611.23-3.2 612.78-4 614.13-5.55L614.13-5.55 614.63-5.1Q613.08-2.35 610.51-0.8 607.93 0.75 604.33 0.75L604.33 0.75Q600.78 0.75 598.03-0.78 595.28-2.3 593.73-5.15 592.18-8 592.18-11.95L592.18-11.95Q592.18-16.05 593.98-18.93 595.78-21.8 598.61-23.3 601.43-24.8 604.53-24.8ZM604.38-23.8L604.38-23.8Q602.93-23.8 601.91-22.93 600.88-22.05 600.31-19.83 599.73-17.6 599.68-13.55L599.68-13.55 608.23-13.55Q608.73-19 607.83-21.4 606.93-23.8 604.38-23.8ZM629.73 0.75L629.73 0.75Q626.33 0.75 623.56-0.73 620.78-2.2 619.16-5.03 617.53-7.85 617.53-11.95L617.53-11.95Q617.53-16 619.31-18.88 621.08-21.75 624.06-23.28 627.03-24.8 630.58-24.8L630.58-24.8Q633.48-24.8 635.48-23.85 637.48-22.9 638.53-21.38 639.58-19.85 639.58-18.2L639.58-18.2Q639.58-16.8 638.73-16.03 637.88-15.25 636.53-15.25L636.53-15.25Q635.08-15.25 634.18-16.3 633.28-17.35 633.13-19.05L633.13-19.05Q633.08-20.15 633.18-20.93 633.28-21.7 633.18-22.5L633.18-22.5Q632.98-23.35 632.56-23.63 632.13-23.9 631.38-23.9L631.38-23.9Q628.33-23.9 626.66-21.25 624.98-18.6 624.98-12.8L624.98-12.8Q624.98-7.75 626.86-5.08 628.73-2.4 632.63-2.4L632.63-2.4Q634.98-2.4 636.43-3.25 637.88-4.1 639.23-5.8L639.23-5.8 639.73-5.4Q638.48-2.45 635.88-0.85 633.28 0.75 629.73 0.75ZM651.08 0.75L651.08 0.75Q649.13 0.75 647.5 0 645.88-0.75 644.95-2.43 644.03-4.1 644.08-6.85L644.08-6.85 644.23-19.7Q644.23-20.85 643.83-21.35 643.43-21.85 642.58-22.05L642.58-22.05 641.98-22.25 641.98-22.75 650.93-24.5 651.43-24 651.18-16.9 651.18-4.85Q651.18-3.25 652.1-2.5 653.03-1.75 654.43-1.75L654.43-1.75Q655.83-1.75 656.93-2.15 658.03-2.55 659.13-3.35L659.13-3.35 659.33-19.65Q659.33-20.8 658.98-21.28 658.63-21.75 657.68-21.95L657.68-21.95 657.18-22.1 657.18-22.6 665.93-24.5 666.43-24 666.28-16.9 666.28-3.35Q666.28-2.25 666.58-1.65 666.88-1.05 667.88-0.65L667.88-0.65 668.38-0.5 668.38 0 659.63 0.5 659.18-2.45Q657.53-1.1 655.6-0.18 653.68 0.75 651.08 0.75ZM683.33 0L670.38 0 670.38-0.5 671.13-0.7Q672.13-1 672.5-1.6 672.88-2.2 672.88-3.15L672.88-3.15 672.88-18.8Q672.88-19.9 672.5-20.43 672.13-20.95 671.13-21.15L671.13-21.15 670.38-21.35 670.38-21.85 678.98-24.75 679.48-24.25 679.93-19.95 679.93-19.55Q680.63-20.95 681.75-22.13 682.88-23.3 684.25-24.05 685.63-24.8 686.98-24.8L686.98-24.8Q688.88-24.8 689.88-23.75 690.88-22.7 690.88-21.1L690.88-21.1Q690.88-19.4 689.9-18.48 688.93-17.55 687.58-17.55L687.58-17.55Q685.48-17.55 683.88-19.65L683.88-19.65 683.78-19.75Q683.28-20.45 682.63-20.53 681.98-20.6 681.43-19.9L681.43-19.9Q680.93-19.45 680.6-18.82 680.28-18.2 679.98-17.4L679.98-17.4 679.98-3.45Q679.98-1.45 681.73-0.95L681.73-0.95 683.33-0.5 683.33 0ZM698.42-27.4L698.42-27.4Q696.72-27.4 695.55-28.48 694.37-29.55 694.37-31.2L694.37-31.2Q694.37-32.9 695.55-33.95 696.72-35 698.42-35L698.42-35Q700.12-35 701.27-33.95 702.42-32.9 702.42-31.2L702.42-31.2Q702.42-29.55 701.27-28.48 700.12-27.4 698.42-27.4ZM704.22 0L692.52 0 692.52-0.5 693.22-0.7Q694.22-1 694.6-1.6 694.97-2.2 694.97-3.2L694.97-3.2 694.97-18.85Q694.97-19.9 694.6-20.43 694.22-20.95 693.22-21.15L693.22-21.15 692.52-21.3 692.52-21.8 701.67-24.75 702.17-24.25 702.02-17.15 702.02-3.15Q702.02-2.15 702.4-1.55 702.77-0.95 703.72-0.65L703.72-0.65 704.22-0.5 704.22 0ZM718.17 0L706.42 0 706.42-0.5 707.12-0.7Q708.87-1.2 708.87-3.15L708.87-3.15 708.87-18.8Q708.87-19.9 708.52-20.43 708.17-20.95 707.17-21.15L707.17-21.15 706.42-21.35 706.42-21.85 714.97-24.75 715.47-24.25 715.87-21.25Q717.62-22.8 719.82-23.8 722.02-24.8 724.17-24.8L724.17-24.8Q727.47-24.8 729.25-23 731.02-21.2 731.02-17.5L731.02-17.5 731.02-3.1Q731.02-1.15 732.92-0.65L732.92-0.65 733.37-0.5 733.37 0 721.57 0 721.57-0.5 722.22-0.7Q723.97-1.25 723.97-3.15L723.97-3.15 723.97-19.1Q723.97-22.3 720.77-22.3L720.77-22.3Q718.57-22.3 715.97-20.1L715.97-20.1 715.97-3.1Q715.97-1.15 717.72-0.65L717.72-0.65 718.17-0.5 718.17 0ZM746.22-8.65L746.22-8.65Q742.77-8.65 740.37-9.8L740.37-9.8 740.37-8.1Q740.37-6.55 741.92-6.25L741.92-6.25 751.32-4.5Q753.67-4.05 755.57-3.33 757.47-2.6 758.62-1.28 759.77 0.05 759.77 2.35L759.77 2.35Q759.77 4.8 758.17 6.88 756.57 8.95 753.44 10.23 750.32 11.5 745.67 11.5L745.67 11.5Q741.67 11.5 739.32 10.68 736.97 9.85 735.99 8.55 735.02 7.25 735.02 5.8L735.02 5.8Q735.02 4 736.24 2.18 737.47 0.35 739.27-0.75L739.27-0.75Q737.72-1.35 737.02-2.3 736.32-3.25 736.32-4.35L736.32-4.35Q736.32-5.35 736.84-6.23 737.37-7.1 738.12-8L738.12-8 739.77-10.1Q736.12-12.2 736.12-16.7L736.12-16.7Q736.12-20.3 738.69-22.55 741.27-24.8 746.27-24.8L746.27-24.8Q748.82-24.8 750.74-24.2 752.67-23.6 753.92-22.5L753.92-22.5Q755.52-22.75 756.94-23.33 758.37-23.9 759.52-24.9L759.52-24.9 760.22-24.4 760.22-21.85 754.57-21.85Q756.37-19.85 756.37-16.7L756.37-16.7Q756.37-13.2 753.79-10.93 751.22-8.65 746.22-8.65ZM746.17-9.65L746.17-9.65Q748.17-9.65 749.09-11.3 750.02-12.95 750.02-16.8L750.02-16.8Q750.02-20.65 749.09-22.23 748.17-23.8 746.27-23.8L746.27-23.8Q744.42-23.8 743.47-22.18 742.52-20.55 742.52-16.7L742.52-16.7Q742.52-12.85 743.39-11.25 744.27-9.65 746.17-9.65ZM738.72 4.2L738.72 4.2Q738.72 7.15 740.54 8.65 742.37 10.15 746.32 10.15L746.32 10.15Q750.47 10.15 752.57 8.8 754.67 7.45 754.67 5L754.67 5Q754.67 3.6 753.64 2.75 752.62 1.9 750.17 1.45L750.17 1.45 741.12-0.25Q740.72-0.35 740.32-0.45L740.32-0.45Q739.62 0.55 739.17 1.83 738.72 3.1 738.72 4.2ZM794.06 0L780.01 0 780.01-0.5 781.51-0.9Q783.26-1.4 783.26-3.4L783.26-3.4 783.26-12.9 775.01-29.7Q774.56-30.7 774.19-31.2 773.81-31.7 773.06-32.05L773.06-32.05 772.16-32.5 772.16-33 785.56-33 785.56-32.5 784.66-32.15Q783.56-31.7 783.46-30.93 783.36-30.15 783.86-29L783.86-29 789.76-15.9 796.36-29.5Q796.76-30.3 796.69-31.15 796.61-32 795.61-32.25L795.61-32.25 794.91-32.5 794.91-33 800.91-33 800.91-32.5 799.96-32.15Q799.01-31.8 798.56-31.18 798.11-30.55 797.66-29.6L797.66-29.6 790.81-15.2 790.81-3.4Q790.81-2.4 791.19-1.78 791.56-1.15 792.51-0.9L792.51-0.9 794.06-0.5 794.06 0ZM814.91 0.75L814.91 0.75Q811.11 0.75 808.31-0.83 805.51-2.4 803.99-5.3 802.46-8.2 802.46-12.1L802.46-12.1Q802.46-16 804.09-18.85 805.71-21.7 808.54-23.25 811.36-24.8 814.91-24.8L814.91-24.8Q818.46-24.8 821.26-23.28 824.06-21.75 825.69-18.9 827.31-16.05 827.31-12.1L827.31-12.1Q827.31-8.15 825.79-5.28 824.26-2.4 821.49-0.83 818.71 0.75 814.91 0.75ZM814.91-0.25L814.91-0.25Q816.66-0.25 817.71-1.25 818.76-2.25 819.24-4.8 819.71-7.35 819.71-12L819.71-12Q819.71-16.7 819.24-19.25 818.76-21.8 817.71-22.8 816.66-23.8 814.91-23.8L814.91-23.8Q813.16-23.8 812.09-22.8 811.01-21.8 810.54-19.25 810.06-16.7 810.06-12L810.06-12Q810.06-7.35 810.54-4.8 811.01-2.25 812.09-1.25 813.16-0.25 814.91-0.25ZM838.56 0.75L838.56 0.75Q836.61 0.75 834.98 0 833.36-0.75 832.43-2.43 831.51-4.1 831.56-6.85L831.56-6.85 831.71-19.7Q831.71-20.85 831.31-21.35 830.91-21.85 830.06-22.05L830.06-22.05 829.46-22.25 829.46-22.75 838.41-24.5 838.91-24 838.66-16.9 838.66-4.85Q838.66-3.25 839.58-2.5 840.51-1.75 841.91-1.75L841.91-1.75Q843.31-1.75 844.41-2.15 845.51-2.55 846.61-3.35L846.61-3.35 846.81-19.65Q846.81-20.8 846.46-21.28 846.11-21.75 845.16-21.95L845.16-21.95 844.66-22.1 844.66-22.6 853.41-24.5 853.91-24 853.76-16.9 853.76-3.35Q853.76-2.25 854.06-1.65 854.36-1.05 855.36-0.65L855.36-0.65 855.86-0.5 855.86 0 847.11 0.5 846.66-2.45Q845.01-1.1 843.08-0.18 841.16 0.75 838.56 0.75ZM870.81 0L857.86 0 857.86-0.5 858.61-0.7Q859.61-1 859.98-1.6 860.36-2.2 860.36-3.15L860.36-3.15 860.36-18.8Q860.36-19.9 859.98-20.43 859.61-20.95 858.61-21.15L858.61-21.15 857.86-21.35 857.86-21.85 866.46-24.75 866.96-24.25 867.41-19.95 867.41-19.55Q868.11-20.95 869.23-22.13 870.36-23.3 871.73-24.05 873.11-24.8 874.46-24.8L874.46-24.8Q876.36-24.8 877.36-23.75 878.36-22.7 878.36-21.1L878.36-21.1Q878.36-19.4 877.38-18.48 876.41-17.55 875.06-17.55L875.06-17.55Q872.96-17.55 871.36-19.65L871.36-19.65 871.26-19.75Q870.76-20.45 870.11-20.53 869.46-20.6 868.91-19.9L868.91-19.9Q868.41-19.45 868.08-18.82 867.76-18.2 867.46-17.4L867.46-17.4 867.46-3.45Q867.46-1.45 869.21-0.95L869.21-0.95 870.81-0.5 870.81 0ZM913.35 0L897.6 0 897.6-0.5 899.65-1Q901.7-1.45 901.7-3.5L901.7-3.5 901.7-32 897.45-32Q895.6-32 894.8-31.03 894-30.05 893.1-28.35L893.1-28.35 891.3-24.85 890.8-24.85 891.05-33 919.9-33 920.1-24.85 919.6-24.85 917.8-28.35Q916.95-30.05 916.15-31.03 915.35-32 913.5-32L913.5-32 909.25-32 909.25-3.5Q909.25-1.45 911.3-1L911.3-1 913.35-0.5 913.35 0ZM934.8 0.75L934.8 0.75Q931 0.75 928.2-0.83 925.4-2.4 923.87-5.3 922.35-8.2 922.35-12.1L922.35-12.1Q922.35-16 923.97-18.85 925.6-21.7 928.42-23.25 931.25-24.8 934.8-24.8L934.8-24.8Q938.35-24.8 941.15-23.28 943.95-21.75 945.57-18.9 947.2-16.05 947.2-12.1L947.2-12.1Q947.2-8.15 945.67-5.28 944.15-2.4 941.37-0.83 938.6 0.75 934.8 0.75ZM934.8-0.25L934.8-0.25Q936.55-0.25 937.6-1.25 938.65-2.25 939.12-4.8 939.6-7.35 939.6-12L939.6-12Q939.6-16.7 939.12-19.25 938.65-21.8 937.6-22.8 936.55-23.8 934.8-23.8L934.8-23.8Q933.05-23.8 931.97-22.8 930.9-21.8 930.42-19.25 929.95-16.7 929.95-12L929.95-12Q929.95-7.35 930.42-4.8 930.9-2.25 931.97-1.25 933.05-0.25 934.8-0.25ZM961.15 0L949.4 0 949.4-0.5 950.1-0.7Q951.05-0.95 951.42-1.55 951.8-2.15 951.85-3.15L951.85-3.15 951.85-18.8Q951.85-19.9 951.5-20.43 951.15-20.95 950.15-21.15L950.15-21.15 949.4-21.35 949.4-21.85 957.95-24.75 958.45-24.25 958.85-20.85Q960.5-22.5 962.62-23.65 964.75-24.8 967.05-24.8L967.05-24.8Q969.45-24.8 970.9-23.83 972.35-22.85 973.1-20.8L973.1-20.8Q975.05-22.65 977.32-23.73 979.6-24.8 981.75-24.8L981.75-24.8Q985.3-24.8 986.97-23.1 988.65-21.4 988.65-17.75L988.65-17.75 988.65-3.1Q988.65-1.15 990.45-0.65L990.45-0.65 991-0.5 991 0 979.45 0 979.45-0.5 979.95-0.65Q980.9-0.95 981.27-1.55 981.65-2.15 981.65-3.15L981.65-3.15 981.65-18.45Q981.65-20.55 980.9-21.33 980.15-22.1 978.5-22.1L978.5-22.1Q977.2-22.1 975.97-21.53 974.75-20.95 973.4-19.8L973.4-19.8Q973.65-19 973.72-18.05 973.8-17.1 973.8-16.05L973.8-16.05 973.8-3.1Q973.85-1.15 975.6-0.65L975.6-0.65 976.05-0.5 976.05 0 964.45 0 964.45-0.5 965.15-0.7Q966.1-1 966.47-1.58 966.85-2.15 966.85-3.15L966.85-3.15 966.85-18.4Q966.85-20.4 966.12-21.25 965.4-22.1 963.65-22.1L963.65-22.1Q962.5-22.1 961.35-21.53 960.2-20.95 958.95-19.85L958.95-19.85 958.95-3.1Q958.95-1.15 960.7-0.65L960.7-0.65 961.15-0.5 961.15 0ZM1005.59 0.75L1005.59 0.75Q1001.79 0.75 998.99-0.83 996.19-2.4 994.67-5.3 993.14-8.2 993.14-12.1L993.14-12.1Q993.14-16 994.77-18.85 996.39-21.7 999.22-23.25 1002.04-24.8 1005.59-24.8L1005.59-24.8Q1009.14-24.8 1011.94-23.28 1014.74-21.75 1016.37-18.9 1017.99-16.05 1017.99-12.1L1017.99-12.1Q1017.99-8.15 1016.47-5.28 1014.94-2.4 1012.17-0.83 1009.39 0.75 1005.59 0.75ZM1005.59-0.25L1005.59-0.25Q1007.34-0.25 1008.39-1.25 1009.44-2.25 1009.92-4.8 1010.39-7.35 1010.39-12L1010.39-12Q1010.39-16.7 1009.92-19.25 1009.44-21.8 1008.39-22.8 1007.34-23.8 1005.59-23.8L1005.59-23.8Q1003.84-23.8 1002.77-22.8 1001.69-21.8 1001.22-19.25 1000.74-16.7 1000.74-12L1000.74-12Q1000.74-7.35 1001.22-4.8 1001.69-2.25 1002.77-1.25 1003.84-0.25 1005.59-0.25ZM1033.14 0L1020.19 0 1020.19-0.5 1020.94-0.7Q1021.94-1 1022.32-1.6 1022.69-2.2 1022.69-3.15L1022.69-3.15 1022.69-18.8Q1022.69-19.9 1022.32-20.43 1021.94-20.95 1020.94-21.15L1020.94-21.15 1020.19-21.35 1020.19-21.85 1028.79-24.75 1029.29-24.25 1029.74-19.95 1029.74-19.55Q1030.44-20.95 1031.57-22.13 1032.69-23.3 1034.07-24.05 1035.44-24.8 1036.79-24.8L1036.79-24.8Q1038.69-24.8 1039.69-23.75 1040.69-22.7 1040.69-21.1L1040.69-21.1Q1040.69-19.4 1039.72-18.48 1038.74-17.55 1037.39-17.55L1037.39-17.55Q1035.29-17.55 1033.69-19.65L1033.69-19.65 1033.59-19.75Q1033.09-20.45 1032.44-20.53 1031.79-20.6 1031.24-19.9L1031.24-19.9Q1030.74-19.45 1030.42-18.82 1030.09-18.2 1029.79-17.4L1029.79-17.4 1029.79-3.45Q1029.79-1.45 1031.54-0.95L1031.54-0.95 1033.14-0.5 1033.14 0ZM1055.19 0L1042.24 0 1042.24-0.5 1042.99-0.7Q1043.99-1 1044.36-1.6 1044.74-2.2 1044.74-3.15L1044.74-3.15 1044.74-18.8Q1044.74-19.9 1044.36-20.43 1043.99-20.95 1042.99-21.15L1042.99-21.15 1042.24-21.35 1042.24-21.85 1050.84-24.75 1051.34-24.25 1051.79-19.95 1051.79-19.55Q1052.49-20.95 1053.61-22.13 1054.74-23.3 1056.11-24.05 1057.49-24.8 1058.84-24.8L1058.84-24.8Q1060.74-24.8 1061.74-23.75 1062.74-22.7 1062.74-21.1L1062.74-21.1Q1062.74-19.4 1061.76-18.48 1060.79-17.55 1059.44-17.55L1059.44-17.55Q1057.34-17.55 1055.74-19.65L1055.74-19.65 1055.64-19.75Q1055.14-20.45 1054.49-20.53 1053.84-20.6 1053.29-19.9L1053.29-19.9Q1052.79-19.45 1052.46-18.82 1052.14-18.2 1051.84-17.4L1051.84-17.4 1051.84-3.45Q1051.84-1.45 1053.59-0.95L1053.59-0.95 1055.19-0.5 1055.19 0ZM1076.94 0.75L1076.94 0.75Q1073.14 0.75 1070.34-0.83 1067.54-2.4 1066.01-5.3 1064.49-8.2 1064.49-12.1L1064.49-12.1Q1064.49-16 1066.11-18.85 1067.74-21.7 1070.56-23.25 1073.39-24.8 1076.94-24.8L1076.94-24.8Q1080.49-24.8 1083.29-23.28 1086.09-21.75 1087.71-18.9 1089.34-16.05 1089.34-12.1L1089.34-12.1Q1089.34-8.15 1087.81-5.28 1086.29-2.4 1083.51-0.83 1080.74 0.75 1076.94 0.75ZM1076.94-0.25L1076.94-0.25Q1078.69-0.25 1079.74-1.25 1080.79-2.25 1081.26-4.8 1081.74-7.35 1081.74-12L1081.74-12Q1081.74-16.7 1081.26-19.25 1080.79-21.8 1079.74-22.8 1078.69-23.8 1076.94-23.8L1076.94-23.8Q1075.19-23.8 1074.11-22.8 1073.04-21.8 1072.56-19.25 1072.09-16.7 1072.09-12L1072.09-12Q1072.09-7.35 1072.56-4.8 1073.04-2.25 1074.11-1.25 1075.19-0.25 1076.94-0.25ZM1104.68 0.15L1101.78 0.15 1094.08-21Q1093.53-22.6 1091.88-23.25L1091.88-23.25 1091.03-23.55 1091.03-24.05 1103.28-24.05 1103.28-23.55 1102.53-23.35Q1100.58-22.75 1101.23-20.95L1101.23-20.95 1105.88-6.8 1110.03-17.8 1109.08-20.65Q1108.73-21.75 1108.36-22.33 1107.98-22.9 1107.38-23.15L1107.38-23.15 1106.53-23.55 1106.53-24.05 1116.88-24.05 1116.88-23.55 1116.18-23.25Q1115.43-22.95 1115.28-22.45 1115.13-21.95 1115.48-20.95L1115.48-20.95 1120.08-7.05 1124.83-20.85Q1125.53-22.75 1124.08-23.25L1124.08-23.25 1122.98-23.55 1122.98-24.05 1128.98-24.05 1128.98-23.55 1127.78-23.2Q1126.93-22.95 1126.56-22.43 1126.18-21.9 1125.88-21L1125.88-21 1118.68 0.15 1116.13 0.15 1110.58-16.2 1104.68 0.15ZM1137.08 0.75L1137.08 0.75Q1135.28 0.75 1134.03-0.5 1132.78-1.75 1132.78-3.5L1132.78-3.5Q1132.78-5.25 1134.03-6.55 1135.28-7.85 1137.08-7.85L1137.08-7.85Q1138.88-7.85 1140.13-6.55 1141.38-5.25 1141.38-3.5L1141.38-3.5Q1141.38-1.75 1140.13-0.5 1138.88 0.75 1137.08 0.75Z" opacity="1" transform="matrix(1,0,0,1,0,0)" fill="#7e91c6" class="slogan-text-1" data-fill-palette-color="secondary" id="text-1"></path></svg></g></svg></g></svg></g></svg></g></svg></g><defs></defs></svg><rect width="356.57904343111926" height="69.93874823935445" fill="none" stroke="none" visibility="hidden"></rect></g></svg></g></svg>